<?xml version="1.0" standalone="no"?>
<!DOCTYPE svg PUBLIC "-//W3C//DTD SVG 20010904//EN"
 "http://www.w3.org/TR/2001/REC-SVG-20010904/DTD/svg10.dtd">
<svg version="1.0" xmlns="http://www.w3.org/2000/svg"
 width="960.000000pt" height="960.000000pt" viewBox="0 0 960.000000 960.000000"
 preserveAspectRatio="xMidYMid meet">
<metadata>
Created by potrace 1.11, written by Peter Selinger 2001-2013
</metadata>
<g transform="translate(0.000000,960.000000) scale(0.100000,-0.100000)"
fill="#000000" stroke="none">
<path d="M4139 9596 c-3 -3 -57 -6 -120 -7 -62 0 -117 -3 -122 -6 -4 -3 -33
-7 -63 -9 -31 -2 -68 -10 -82 -18 -47 -24 -126 -46 -164 -46 -40 0 -143 -24
-162 -38 -15 -11 -89 -37 -151 -52 -64 -16 -126 -37 -192 -66 -29 -13 -65 -26
-80 -30 -35 -8 -117 -46 -121 -56 -2 -5 -10 -8 -19 -8 -15 0 -135 -51 -163
-70 -30 -19 -155 -80 -166 -80 -6 0 -19 -9 -28 -19 -10 -11 -28 -22 -41 -25
-13 -3 -47 -21 -76 -41 -29 -19 -56 -32 -61 -29 -4 3 -8 1 -8 -4 0 -8 -115
-84 -170 -112 -14 -7 -27 -16 -30 -20 -3 -4 -43 -33 -90 -65 -47 -32 -101 -72
-121 -89 -20 -17 -57 -47 -83 -66 -77 -57 -149 -115 -182 -146 -17 -16 -62
-56 -100 -89 -87 -76 -155 -146 -428 -439 -15 -17 -34 -43 -42 -58 -8 -15 -22
-33 -33 -40 -10 -7 -39 -43 -65 -80 -26 -37 -53 -71 -59 -75 -14 -9 -67 -79
-67 -88 0 -3 -23 -35 -50 -71 -28 -36 -50 -72 -50 -80 0 -8 -6 -17 -14 -20 -7
-3 -26 -29 -41 -57 -16 -29 -38 -65 -51 -82 -12 -16 -32 -50 -44 -75 -12 -25
-32 -55 -43 -68 -11 -12 -22 -32 -24 -45 -2 -12 -10 -27 -18 -33 -8 -6 -15
-16 -15 -22 0 -12 -51 -114 -61 -122 -3 -3 -10 -16 -14 -30 -4 -14 -23 -59
-42 -100 -75 -162 -87 -189 -148 -347 -19 -51 -35 -96 -34 -100 1 -5 0 -11 -1
-15 -1 -5 -3 -11 -4 -15 -7 -30 -51 -150 -59 -160 -5 -7 -7 -24 -5 -38 3 -13
1 -26 -4 -27 -5 -2 -10 -13 -11 -26 0 -12 -4 -22 -8 -22 -3 0 -9 -17 -12 -37
-3 -21 -8 -47 -11 -58 -3 -11 -14 -56 -24 -100 -10 -44 -21 -87 -24 -95 -4 -8
-7 -31 -8 -50 -2 -65 -7 -95 -18 -123 -14 -33 -12 -1541 2 -1592 4 -16 9 -37
11 -45 2 -8 4 -15 5 -15 1 0 3 -20 5 -45 2 -25 8 -57 14 -71 5 -15 7 -30 4
-33 -3 -3 -1 -12 5 -19 7 -8 9 -16 7 -19 -3 -3 -1 -18 5 -34 6 -16 13 -45 14
-64 2 -20 8 -46 15 -59 7 -13 14 -35 16 -49 1 -15 7 -28 12 -29 5 -2 8 -16 7
-31 -1 -16 11 -58 26 -94 16 -37 26 -68 23 -71 -2 -3 2 -18 10 -34 8 -15 18
-46 22 -68 3 -22 15 -54 26 -71 10 -17 19 -40 19 -51 0 -19 21 -68 91 -220 16
-34 29 -66 29 -71 0 -5 9 -21 20 -35 12 -15 20 -29 19 -32 -1 -4 10 -24 23
-45 14 -20 28 -50 32 -65 4 -16 16 -40 27 -53 10 -14 19 -32 19 -41 0 -9 10
-27 23 -41 13 -14 22 -30 20 -36 -2 -7 7 -24 20 -40 20 -24 33 -49 40 -74 0
-3 5 -9 9 -15 20 -23 118 -181 118 -189 0 -5 7 -16 15 -25 35 -36 65 -77 65
-88 0 -6 22 -35 48 -65 27 -29 67 -81 90 -114 22 -34 54 -72 69 -85 15 -13 35
-38 43 -54 8 -17 44 -61 81 -100 125 -131 137 -145 131 -145 -4 0 0 -4 8 -10
8 -5 55 -48 105 -97 193 -188 252 -243 261 -243 6 0 27 -18 49 -40 21 -22 41
-38 43 -35 2 2 16 -8 31 -21 14 -14 44 -38 66 -52 22 -15 62 -46 90 -70 27
-25 60 -48 72 -53 13 -5 23 -13 23 -19 0 -5 5 -10 11 -10 11 0 87 -50 124 -81
11 -10 29 -19 40 -21 11 -1 27 -12 36 -23 9 -11 66 -45 125 -75 60 -30 111
-57 114 -60 12 -13 60 -40 70 -40 6 0 20 -9 31 -19 12 -11 41 -25 65 -32 24
-8 44 -16 44 -20 0 -6 39 -26 54 -27 5 0 12 -5 15 -11 4 -6 19 -12 34 -13 15
-1 27 -5 27 -9 0 -3 21 -14 48 -24 26 -10 57 -25 70 -33 12 -8 22 -11 22 -8 0
4 13 0 30 -9 16 -8 33 -14 37 -14 4 1 25 -5 45 -14 21 -10 44 -17 53 -17 8 0
15 -5 15 -10 0 -6 3 -9 8 -9 4 1 9 0 12 -1 3 -1 14 -4 25 -6 25 -6 36 -9 55
-17 8 -4 27 -8 42 -11 14 -2 38 -12 52 -21 14 -10 26 -14 26 -10 0 4 7 2 15
-5 8 -7 15 -10 15 -6 0 4 12 0 28 -7 15 -8 37 -13 50 -12 12 1 22 -2 22 -6 0
-4 9 -11 21 -14 22 -7 53 -35 56 -51 1 -5 5 -18 8 -29 6 -16 5 -17 -4 -5 -6 8
-11 10 -11 4 0 -6 6 -16 13 -21 9 -7 2329 -11 2417 -4 14 1 16 12 11 64 -1 5
-6 5 -13 1 -7 -4 -8 -3 -4 5 4 6 12 9 17 6 5 -4 9 -2 9 3 0 14 78 46 116 47
19 0 38 5 42 10 4 6 16 12 27 14 11 1 29 8 40 14 11 6 23 10 28 9 4 -1 7 2 7
6 0 4 12 7 28 7 15 -1 36 3 47 9 11 5 26 11 34 12 8 2 18 9 22 16 5 7 9 10 9
5 0 -4 16 0 36 8 20 8 43 15 52 15 8 0 33 9 56 19 23 11 64 29 91 41 28 12 57
28 65 35 8 8 18 14 23 14 4 1 8 1 10 2 1 0 13 2 25 3 13 2 27 8 32 15 4 7 9
12 11 12 15 -2 49 13 49 22 0 6 3 7 6 4 4 -3 18 2 31 13 13 10 31 16 39 13 8
-3 14 0 14 7 0 6 4 9 10 5 5 -3 18 3 29 14 11 11 22 17 25 14 2 -3 20 6 38 19
18 13 42 25 53 26 10 2 32 14 47 27 15 13 37 26 48 30 11 3 20 11 20 17 0 6 3
8 6 5 8 -8 59 20 89 47 11 10 35 25 53 32 18 8 35 21 39 29 3 8 11 15 18 15 6
0 20 9 30 20 10 11 21 17 25 15 10 -6 138 86 179 129 19 20 42 36 51 36 10 0
31 11 46 24 16 14 58 50 94 80 36 31 71 56 79 56 8 0 12 2 9 5 -4 4 110 125
118 125 2 0 74 69 159 153 86 84 158 151 160 149 2 -2 6 7 10 20 4 13 17 34
30 48 13 14 50 54 84 91 33 36 73 84 88 106 28 41 100 136 180 238 22 29 48
65 56 81 8 16 25 40 36 53 12 13 21 30 21 37 0 7 11 25 23 41 13 15 30 40 38
54 45 84 63 114 74 126 8 7 16 26 20 43 4 16 11 32 16 35 5 4 9 14 9 24 0 10
7 24 16 32 9 7 29 38 45 68 16 31 33 63 39 71 16 25 50 108 50 122 0 7 11 33
24 58 29 55 75 163 79 187 2 10 8 29 14 43 6 14 23 53 37 87 15 35 26 68 25
75 -1 7 3 26 9 41 7 16 12 33 12 38 0 6 7 23 15 39 8 15 17 44 19 64 2 19 7
39 10 44 3 5 7 21 10 37 3 16 12 52 20 80 26 90 37 135 41 163 2 15 8 39 13
53 6 14 9 42 8 62 -1 20 2 38 6 39 4 2 9 21 12 43 2 22 10 63 16 91 16 72 10
1505 -6 1525 -12 14 -26 86 -26 122 1 10 -4 31 -9 45 -6 15 -13 43 -15 62 -6
47 -34 139 -43 145 -5 2 -6 16 -3 30 2 14 0 25 -7 25 -5 0 -8 6 -5 14 3 8 0
25 -6 37 -7 12 -13 36 -15 54 -2 32 -44 135 -54 135 -4 0 -6 16 -5 35 2 37
-15 95 -28 95 -4 0 -5 7 -1 16 3 9 2 19 -3 23 -14 9 -34 49 -34 66 0 8 -18 59
-41 112 -22 54 -45 112 -51 128 -6 17 -15 34 -19 39 -5 6 -9 18 -9 27 0 10 -4
19 -9 21 -5 2 -32 53 -62 113 -29 61 -69 137 -89 171 -21 33 -41 71 -45 85 -4
13 -18 37 -31 52 -13 16 -24 35 -24 42 0 7 -16 32 -36 56 -19 23 -41 56 -49
73 -7 17 -29 49 -49 70 -20 22 -46 60 -58 84 -11 25 -32 54 -46 66 -13 12 -32
37 -42 56 -11 19 -31 49 -47 65 -41 44 -103 127 -103 138 0 5 -35 44 -77 86
-43 42 -126 126 -185 186 -144 148 -325 317 -357 334 -14 8 -48 36 -76 63 -27
28 -66 58 -85 68 -19 10 -57 38 -85 64 -27 25 -61 51 -75 58 -47 25 -110 69
-110 79 0 5 -6 9 -14 9 -8 0 -28 11 -44 25 -17 14 -33 25 -37 25 -5 0 -23 11
-40 24 -18 14 -60 39 -93 56 -34 17 -64 35 -67 40 -3 5 -18 11 -33 15 -15 3
-39 16 -53 29 -14 13 -42 29 -62 35 -20 7 -37 16 -37 21 0 5 -15 13 -33 19
-33 11 -143 66 -162 81 -5 4 -26 11 -45 15 -19 4 -51 16 -70 26 -56 30 -149
69 -164 69 -8 0 -16 3 -18 8 -4 10 -155 63 -198 69 -19 3 -58 16 -86 29 -27
14 -63 26 -80 29 -16 2 -60 11 -99 20 -38 9 -82 19 -97 22 -16 3 -28 9 -28 13
0 4 -35 10 -77 14 -42 4 -84 11 -94 16 -9 5 -34 12 -55 16 -50 8 -1537 18
-1545 10z"/>
</g>
</svg>
